<?xml version="1.0" encoding="UTF-8"?>
<svg id="Layer_1" xmlns="http://www.w3.org/2000/svg" version="1.1" viewBox="0 0 100 100">
  <!-- Generator: Adobe Illustrator 29.6.1, SVG Export Plug-In . SVG Version: 2.1.1 Build 9)  -->
  <path d="M68.67,73.86c-.24,0-.49-.09-.68-.27-.4-.38-.43-1.01-.05-1.41l19.76-21.18H10c-.55,0-1-.45-1-1s.45-1,1-1h77.7l-19.76-21.18c-.38-.4-.35-1.04.05-1.41.41-.38,1.04-.35,1.41.05l21.32,22.85c.08.08.13.17.18.26h0s.02.04.02.05c.04.1.07.21.07.33h0s0,.02,0,.03c0,.02,0,.05,0,.07h0c0,.11-.03.21-.07.31,0,.02-.02.05-.03.07,0,0,0,0,0,0-.04.09-.1.17-.17.25l-21.32,22.85c-.2.21-.46.32-.73.32Z"/>
</svg>