<?xml version="1.0" encoding="UTF-8"?>
<svg id="Layer_1" xmlns="http://www.w3.org/2000/svg" version="1.1" viewBox="0 0 100 100">
  <!-- Generator: Adobe Illustrator 29.7.0, SVG Export Plug-In . SVG Version: 2.1.1 Build 138)  -->
  <path d="M23.72,44.11c7.04,13.84,18.36,25.15,32.22,32.19l10.76-10.78c1.34-1.34,3.28-1.74,4.96-1.2,5.48,1.81,11.37,2.79,17.45,2.79,2.71,0,4.89,2.18,4.89,4.89v17.11c0,2.71-2.18,4.89-4.89,4.89C43.2,94,6,56.8,6,10.89c0-2.71,2.2-4.89,4.89-4.89h17.11c2.71,0,4.89,2.18,4.89,4.89,0,6.09.98,11.98,2.79,17.45.54,1.69.15,3.62-1.2,4.96l-10.76,10.8Z"/>
</svg>