<svg width="74" height="74" viewBox="0 0 74 74" fill="none" xmlns="http://www.w3.org/2000/svg">
<circle cx="37" cy="37" r="37" fill="#8AB3DB"/>
<path d="M56.3125 26.3633C56.3125 27.1029 56.0302 27.8429 55.4656 28.4066L32.3406 51.5316C31.7783 52.0989 31.0376 52.3789 30.2969 52.3789C29.5562 52.3789 28.8172 52.0966 28.2536 51.532L16.6911 39.9695C16.1265 39.4072 15.8438 38.6665 15.8438 37.9258C15.8438 36.2745 17.1942 35.0352 18.7344 35.0352C19.474 35.0352 20.214 35.3174 20.7777 35.882L30.2969 45.4053L51.3804 24.3218C51.9404 23.7554 52.6812 23.4727 53.4219 23.4727C54.9666 23.4727 56.3125 24.7102 56.3125 26.3633Z" fill="white"/>
</svg>
