<?xml version="1.0" encoding="UTF-8"?>
<svg id="Layer_1" xmlns="http://www.w3.org/2000/svg" version="1.1" viewBox="0 0 100 100">
  <!-- Generator: Adobe Illustrator 29.6.1, SVG Export Plug-In . SVG Version: 2.1.1 Build 9)  -->
  <defs>
    <style>
      .st0 {
        opacity: .85;
      }

      .st1 {
        fill-rule: evenodd;
      }
    </style>
  </defs>
  <g class="st0">
    <path class="st1" d="M78.43,21.63c-7.48-7.49-17.44-11.62-28.04-11.63-21.85,0-39.63,17.78-39.64,39.64,0,6.99,1.82,13.81,5.29,19.82l-5.62,20.54,21.02-5.51c5.79,3.16,12.31,4.82,18.94,4.82h.02s0,0,0,0c21.85,0,39.63-17.78,39.64-39.64,0-10.59-4.12-20.55-11.6-28.05ZM50.39,82.62h-.01c-5.91,0-11.71-1.59-16.77-4.59l-1.2-.71-12.47,3.27,3.33-12.16-.78-1.25c-3.3-5.25-5.04-11.31-5.04-17.53,0-18.17,14.79-32.95,32.96-32.95,8.8,0,17.07,3.43,23.29,9.66,6.22,6.23,9.64,14.51,9.64,23.31,0,18.17-14.79,32.95-32.95,32.95Z"/>
    <path class="st1" d="M68.46,57.94c-.99-.5-5.86-2.89-6.77-3.22-.91-.33-1.57-.5-2.23.5-.66.99-2.56,3.22-3.14,3.88-.58.66-1.16.74-2.15.25-.99-.5-4.18-1.54-7.97-4.92-2.94-2.63-4.93-5.87-5.51-6.86-.58-.99-.06-1.53.43-2.02.45-.44.99-1.16,1.49-1.74.49-.58.66-.99.99-1.65.33-.66.17-1.24-.08-1.74-.25-.5-2.23-5.37-3.05-7.35-.8-1.93-1.62-1.67-2.23-1.7-.58-.03-1.24-.03-1.9-.03s-1.73.25-2.64,1.24c-.91.99-3.47,3.39-3.47,8.26s3.55,9.59,4.04,10.25c.5.66,6.98,10.67,16.92,14.96,2.36,1.02,4.21,1.63,5.65,2.09,2.37.75,4.53.65,6.24.39,1.9-.28,5.86-2.4,6.69-4.71.83-2.31.83-4.3.58-4.71-.25-.41-.91-.66-1.9-1.16Z"/>
  </g>
</svg>