<svg width="38" height="37" viewBox="0 0 38 37" fill="none" xmlns="http://www.w3.org/2000/svg">
<path d="M17.4452 0.147084C16.558 0.382162 15.8831 0.776487 15.1475 1.51205C14.5863 2.06563 14.4423 2.26279 14.1465 2.87703C13.9569 3.27135 13.7674 3.74909 13.7294 3.93867C13.3882 5.37189 13.6612 6.84302 14.4878 8.07908C15.1248 9.03456 16.0878 9.75496 17.2405 10.1341C17.7637 10.3085 17.976 10.3389 18.795 10.3389C19.6216 10.3389 19.8263 10.3085 20.3496 10.1341C22.7534 9.33789 24.2776 6.98711 23.9516 4.57566C23.7847 3.30168 23.3525 2.42962 22.4349 1.51205C21.6918 0.768904 21.0396 0.382162 20.1145 0.147084C19.341 -0.0500784 18.2035 -0.0500784 17.4452 0.147084ZM21.3278 3.18794C21.4795 3.30168 21.525 3.40785 21.525 3.62018C21.525 3.878 21.4188 3.99934 19.8339 5.58422C17.7485 7.67717 17.9609 7.60893 16.8461 6.50178C16.1409 5.80413 16.0651 5.69797 16.0651 5.44772C16.0651 5.15956 16.2016 4.97756 16.4973 4.89415C16.7248 4.81832 16.9371 4.93965 17.4452 5.44014L17.885 5.8648L19.3107 4.44674C20.8425 2.92252 20.9259 2.86944 21.3278 3.18794Z" fill="white"/>
<path d="M3.40619 15.6349C1.54831 18.1525 0.0240923 20.2758 0.00134277 20.3668C-0.0214067 20.4957 0.236421 20.7384 1.42698 21.6787C2.2308 22.3081 2.94361 22.8237 3.01944 22.8237C3.10286 22.8237 4.33133 21.2237 6.51529 18.2662C8.36558 15.7562 9.91255 13.6557 9.94288 13.6026C9.97321 13.5419 9.97321 13.4509 9.94288 13.3903C9.82155 13.1855 7.07644 11.0698 6.92478 11.0698C6.81103 11.0698 5.93138 12.2073 3.40619 15.6349Z" fill="white"/>
<path d="M30.8226 11.8863C29.8292 12.3337 28.9723 12.7508 28.9344 12.819C28.8737 12.9176 29.3894 14.2598 31.2017 18.7339C33.1355 23.5037 33.5753 24.535 33.6966 24.5502C33.78 24.5578 34.6824 24.2013 35.7061 23.7464C37.1545 23.1094 37.5716 22.897 37.5868 22.7833C37.5944 22.6999 36.5555 20.0382 35.2739 16.8684C33.325 12.0683 32.9155 11.1052 32.7866 11.09C32.7032 11.0825 31.816 11.4389 30.8226 11.8863Z" fill="white"/>
<path d="M17.8879 14.1454C17.6604 14.206 17.3495 14.3349 17.1903 14.4259C16.8263 14.6458 13.6337 17.7094 13.5048 17.9673C13.4138 18.1341 13.4138 18.2099 13.5124 18.4374C13.611 18.6649 13.702 18.7332 14.066 18.8773C14.8925 19.1806 15.6812 19.2564 16.4623 19.0972C16.6822 19.0517 17.2964 18.8166 17.8197 18.5663C18.6083 18.1948 18.8661 18.1038 19.2984 18.0659C19.8747 18.0204 20.5344 18.1644 20.9743 18.4298C21.1032 18.5133 22.7032 19.7721 24.5383 21.2432C28.1934 24.1703 28.4664 24.3447 29.5508 24.504C30.0741 24.5798 30.3167 24.5722 31.1357 24.4585C31.6665 24.3902 32.1139 24.3144 32.1367 24.2992C32.1594 24.2689 28.8304 15.9577 28.2844 14.6838L28.1252 14.3122L27.6399 14.5776C27.0635 14.8961 26.4721 15.0857 26.0626 15.0857C25.9033 15.0857 24.2957 14.8658 22.4909 14.6003C18.4794 14.0013 18.4187 13.9937 17.8879 14.1454Z" fill="white"/>
<path d="M9.55359 16.122C9.0986 16.7362 7.85496 18.4197 6.79331 19.8605L4.86719 22.4767L5.29943 22.871C5.762 23.2881 5.92883 23.6066 6.01983 24.2132L6.07291 24.5696L6.27766 24.3801C6.38382 24.2739 6.67957 24.0995 6.92981 23.9782C7.32414 23.7962 7.4758 23.7658 8.06729 23.7658C8.65119 23.7658 8.81044 23.7962 9.18201 23.9706C10.0768 24.3876 10.729 25.2825 10.8124 26.2L10.8503 26.6474H11.4342C11.8968 26.655 12.094 26.6929 12.4428 26.8522C13.3148 27.2541 13.9367 28.1565 14.0049 29.1044L14.0428 29.62L14.5433 29.658C15.0893 29.6959 15.4078 29.8324 15.8931 30.2191C16.2647 30.5224 16.6514 31.2428 16.7197 31.7585L16.7652 32.1073L17.2581 32.1225C17.6372 32.1301 17.8572 32.1832 18.2287 32.3651C18.7823 32.6381 19.116 32.987 19.3965 33.586C19.662 34.1548 19.6771 35.0344 19.4193 35.588C19.26 35.9368 19.26 35.9596 19.3814 36.0582C19.5634 36.1946 20.1018 36.2705 20.4279 36.2098C20.7312 36.1491 21.1786 35.7927 21.3454 35.4742C21.4895 35.1937 21.4819 34.5415 21.3303 34.2154C21.2393 34.0259 20.6857 33.5481 19.2828 32.4637C17.2884 30.9092 17.1064 30.7196 17.2657 30.3632C17.3794 30.1054 17.6827 29.9309 17.9027 29.984C18.0012 30.0068 18.934 30.6968 19.9729 31.5158C21.0193 32.3272 22.0203 33.0931 22.2023 33.2145C23.2943 33.9197 24.6062 32.8277 24.0374 31.6751C23.9009 31.3945 23.5976 31.1518 21.7018 29.7869C20.2989 28.7859 19.48 28.1565 19.4193 28.02C19.3359 27.8532 19.3359 27.7697 19.4041 27.5953C19.5027 27.3678 19.8515 27.1783 20.0639 27.2313C20.1397 27.2541 21.2317 28.0048 22.4981 28.9072C24.0374 30.0068 24.8792 30.5604 25.0612 30.5983C25.7209 30.7196 26.2896 30.4921 26.7143 29.9234C26.9494 29.6049 26.9721 28.8466 26.7674 28.4371C26.5854 28.0807 26.5247 28.0352 23.81 26.018C22.7483 25.237 21.808 24.5014 21.7246 24.3876C21.5426 24.1374 21.6108 23.8568 21.9293 23.6217C22.1037 23.4928 22.172 23.4853 22.3464 23.5459C22.4601 23.5914 23.681 24.4559 25.046 25.4645C26.4186 26.4806 27.6546 27.3527 27.7911 27.4133C28.3219 27.6332 29.0954 27.4361 29.4063 27.0038C29.6035 26.7308 29.74 26.1924 29.6793 25.927C29.6338 25.7375 29.5883 25.7071 29.1864 25.6389C28.7087 25.5479 27.8821 25.2445 27.4499 24.9867C27.2982 24.9033 25.6602 23.6142 23.8024 22.1354C21.9445 20.6491 20.3065 19.3903 20.1624 19.3297C19.662 19.1173 19.2145 19.1856 18.3425 19.6178C17.3112 20.1259 16.5604 20.3155 15.6125 20.3155C13.4968 20.3155 12.1546 19.3752 12.2987 18.0026C12.3594 17.4339 12.4807 17.2367 13.3376 16.4026C13.7547 15.9931 14.0959 15.6367 14.0959 15.5988C14.0959 15.5684 13.4741 15.5381 12.7158 15.5381C11.2598 15.5381 11.0702 15.5002 10.5546 15.1134C10.3877 14.9921 10.3726 15.0073 9.55359 16.122Z" fill="white"/>
<path d="M7.55371 24.9761C7.39446 25.0292 7.18214 25.1354 7.08355 25.1961C6.86364 25.3401 4.74035 28.0625 4.56594 28.4189C4.41428 28.745 4.41428 29.4199 4.57353 29.7535C5.02093 30.6863 6.27974 30.9972 7.03047 30.3602C7.31863 30.1251 9.29784 27.5772 9.47984 27.2208C9.768 26.6672 9.60875 25.7648 9.14618 25.3553C8.71394 24.961 8.03145 24.7942 7.55371 24.9761Z" fill="white"/>
<path d="M10.562 28.021C10.2511 28.2182 8.37049 30.5841 8.03683 31.1832C7.66526 31.8505 7.961 32.7909 8.64349 33.1397C9.09089 33.3672 9.65963 33.3596 10.0615 33.1245C10.4938 32.8743 12.6929 30.114 12.8066 29.6893C12.9128 29.3102 12.7991 28.7566 12.564 28.4229C12.1393 27.8239 11.1611 27.6267 10.562 28.021Z" fill="white"/>
<path d="M13.7172 30.9183C13.4594 31.0548 12.193 32.5259 11.738 33.2008C11.101 34.1791 11.92 35.4227 13.0878 35.2331C13.5124 35.1649 13.6641 35.0208 14.4982 33.9061C15.431 32.67 15.5371 32.488 15.5371 32.0558C15.5296 31.1382 14.5134 30.5012 13.7172 30.9183Z" fill="white"/>
<path d="M16.5452 33.3904C16.3101 33.4966 15.3774 34.6189 15.1347 35.0966C14.7101 35.9384 15.4077 37 16.386 37C16.9547 37 17.2732 36.7801 17.7509 36.0597C18.3879 35.1042 18.4334 34.9905 18.3955 34.4824C18.3576 34.0122 18.2211 33.7544 17.8571 33.4814C17.5993 33.2918 16.8789 33.2387 16.5452 33.3904Z" fill="white"/>
</svg>
