<?xml version="1.0" encoding="UTF-8"?>
<svg id="Layer_1" xmlns="http://www.w3.org/2000/svg" version="1.1" viewBox="0 0 100 100">
  <!-- Generator: Adobe Illustrator 29.6.1, SVG Export Plug-In . SVG Version: 2.1.1 Build 9)  -->
  <defs>
    <style>
      .st0 {
        isolation: isolate;
        opacity: .8;
      }
    </style>
  </defs>
  <g class="st0">
    <path d="M50,91.5c-.83,0-1.5-.67-1.5-1.5V13.34l-21.5,19.11c-.62.55-1.57.49-2.12-.12-.55-.62-.49-1.57.12-2.12l23.99-21.32c.11-.1.23-.18.37-.25.03-.02.06-.03.1-.04.13-.05.27-.08.41-.1.05,0,.09,0,.14,0h0s.1,0,.15,0c.13.01.25.04.37.08.04.02.08.03.13.05.13.06.26.15.37.25l23.99,21.32c.62.55.68,1.5.12,2.12-.55.62-1.5.68-2.12.12l-21.5-19.11v76.66c0,.83-.67,1.5-1.5,1.5Z"/>
  </g>
</svg>