<?xml version="1.0" encoding="UTF-8"?>
<svg id="Layer_1" xmlns="http://www.w3.org/2000/svg" version="1.1" viewBox="0 0 100 100">
  <!-- Generator: Adobe Illustrator 29.6.1, SVG Export Plug-In . SVG Version: 2.1.1 Build 9)  -->
  <path d="M28.76,80.67l30.61-30.67-30.61-30.67c-1.02-1.03-1.6-2.42-1.6-3.87s.57-2.84,1.6-3.87c1.03-1.02,2.42-1.6,3.87-1.6s2.84.57,3.87,1.6l34.89,34.89c.92.93,1.44,2.2,1.44,3.51s-.52,2.58-1.44,3.51l-34.89,34.89c-1.03,1.02-2.42,1.6-3.87,1.6s-2.84-.57-3.87-1.6c-1.02-1.03-1.6-2.42-1.6-3.87s.57-2.84,1.6-3.87Z"/>
</svg>