<?xml version="1.0" encoding="UTF-8"?>
<svg id="Layer_1" xmlns="http://www.w3.org/2000/svg" version="1.1" viewBox="0 0 100 100">
  <!-- Generator: Adobe Illustrator 29.6.1, SVG Export Plug-In . SVG Version: 2.1.1 Build 9)  -->
  <path d="M57.11,27.63c-1.35.25-3.33,1.09-4.33,1.84-.51.4-4.53,4.15-8.94,8.36-5.74,5.5-8,7.75-8,8.02,0,.46,1.88,2.02,3.23,2.7,1.89.94,4.4.91,6.4-.08.99-.49,1.91-1.28,6.26-5.38,2.81-2.63,5.33-4.91,5.63-5.02.69-.3,1.4-.15,1.94.43.36.38.48.74.74,2.57,1.14,7.41,4.61,14.32,8.91,17.78l1.05.84,9.47-1.19c5.66-.71,9.61-1.27,9.83-1.4.2-.13.43-.41.53-.61.13-.26.18-3.61.18-10.27v-9.89l-.48-.48c-.31-.3-.66-.48-.95-.48-.25,0-2.83.44-5.71.99-2.88.54-5.55.99-5.89.99-.59,0-1.25-.43-6.35-3.98-5.94-4.13-7.41-5.04-8.92-5.47-1.14-.33-3.42-.46-4.58-.26Z"/>
  <path d="M41.69,29.04c-4.76.72-9.55,3.01-14.07,6.73-1.78,1.45-1.98,1.56-2.68,1.56-.35,0-3.51-.48-7.01-1.07-6.9-1.15-7.11-1.15-7.65-.33-.23.35-.26,1.63-.26,10.68v10.29l.38.44c.36.41.77.51,6.67,1.65,3.47.66,6.45,1.32,6.63,1.45.18.13,2.34,2.29,4.76,4.81,2.44,2.5,4.74,4.82,5.14,5.14,1.58,1.27,3.97,2.06,6.3,2.07,1.74.02,2.68-.35,3.54-1.35,1.56-1.84,1.73-1.89,3.65-1.17,4.02,1.5,7.36.33,9.78-3.41,1.15-1.78,1.38-1.88,3.44-1.38,3.03.72,5.32-.05,6.7-2.27l.33-.54-.79-.67c-4.31-3.67-7.74-9.51-9.35-15.95l-.53-2.14-3.46,3.24c-4.02,3.79-4.66,4.33-6.04,4.99-2.63,1.3-5.74,1.51-8.51.58-2.62-.87-5.78-3.44-6.34-5.15-.35-1.07-.26-2.34.23-3.36.25-.49,2.44-2.7,7.74-7.77,5.74-5.5,7.34-7.11,7.13-7.19-.49-.2-4.16-.12-5.71.13Z"/>
</svg>