<?xml version="1.0" encoding="UTF-8"?>
<svg id="Layer_1" xmlns="http://www.w3.org/2000/svg" version="1.1" viewBox="0 0 104 100">
  <!-- Generator: Adobe Illustrator 29.6.1, SVG Export Plug-In . SVG Version: 2.1.1 Build 9)  -->
  <defs>
    <style>
      .st0 {
        opacity: .85;
      }
    </style>
  </defs>
  <g class="st0">
    <path d="M29.3,21.75c0,2.14-.89,4.19-2.46,5.71-1.58,1.51-3.71,2.36-5.94,2.36-2.23,0-4.36-.85-5.93-2.37-1.57-1.51-2.46-3.57-2.46-5.71,0-2.14.89-4.19,2.46-5.71,1.58-1.51,3.71-2.36,5.94-2.36,2.23,0,4.36.85,5.93,2.37,1.57,1.51,2.46,3.57,2.46,5.71ZM29.55,35.8H12.76v50.53h16.79v-50.53ZM56.08,35.8h-16.71v50.53h16.54v-26.52c0-14.77,20.02-16.14,20.02,0v26.52h16.58v-32c0-24.9-29.63-23.97-36.6-11.74l.17-6.78Z"/>
  </g>
</svg>