<?xml version="1.0" encoding="UTF-8"?>
<svg id="Layer_1" xmlns="http://www.w3.org/2000/svg" version="1.1" viewBox="0 0 100 100">
  <!-- Generator: Adobe Illustrator 29.6.1, SVG Export Plug-In . SVG Version: 2.1.1 Build 9)  -->
  <defs>
    <style>
      .st0 {
        opacity: .85;
      }
    </style>
  </defs>
  <g class="st0">
    <path d="M50,29.19c-11.29,0-20.65,9.19-20.65,20.65s9.19,20.65,20.65,20.65,20.65-9.35,20.65-20.65-9.35-20.65-20.65-20.65ZM50,63.06c-7.26,0-13.23-5.97-13.23-13.23s5.97-13.23,13.23-13.23,13.23,5.97,13.23,13.23-5.97,13.23-13.23,13.23Z"/>
    <path d="M71.45,33.39c2.58,0,4.68-2.09,4.68-4.68s-2.09-4.68-4.68-4.68-4.68,2.09-4.68,4.68,2.09,4.68,4.68,4.68Z"/>
    <path d="M83.55,16.61c-4.19-4.35-10.16-6.61-16.94-6.61h-33.23c-14.03,0-23.39,9.35-23.39,23.39v33.06c0,6.94,2.26,12.9,6.77,17.26,4.35,4.19,10.16,6.29,16.77,6.29h32.9c6.94,0,12.74-2.26,16.94-6.29,4.35-4.19,6.61-10.16,6.61-17.1v-33.23c0-6.77-2.26-12.58-6.45-16.77ZM82.9,66.61c0,5-1.77,9.03-4.68,11.77-2.9,2.74-6.94,4.19-11.77,4.19h-32.9c-4.84,0-8.87-1.45-11.77-4.19-2.9-2.9-4.35-6.94-4.35-11.94v-33.06c0-4.84,1.45-8.87,4.35-11.77,2.74-2.74,6.94-4.19,11.77-4.19h33.23c4.84,0,8.87,1.45,11.77,4.35,2.74,2.9,4.35,6.94,4.35,11.61v33.23Z"/>
  </g>
</svg>