<svg width="56" height="56" viewBox="0 0 56 56" fill="none" xmlns="http://www.w3.org/2000/svg">
<circle cx="27.7891" cy="27.7891" r="27.7891" fill="#077AFD"/>
<path d="M42.2927 19.799C42.2927 20.3545 42.0807 20.9102 41.6567 21.3336L24.2885 38.7018C23.8662 39.1278 23.3099 39.3381 22.7535 39.3381C22.1972 39.3381 21.6422 39.1261 21.2189 38.7021L12.5348 30.018C12.1108 29.5957 11.8984 29.0394 11.8984 28.483C11.8984 27.2428 12.9127 26.312 14.0695 26.312C14.625 26.312 15.1807 26.524 15.6041 26.9481L22.7535 34.1005L38.5884 18.2657C39.0091 17.8403 39.5654 17.6279 40.1217 17.6279C41.2818 17.6279 42.2927 18.5574 42.2927 19.799Z" fill="white"/>
</svg>
